<?xml version="1.0" encoding="UTF-8"?>
<svg width="128px" height="128px" viewBox="0 0 128 128" version="1.1" xmlns="http://www.w3.org/2000/svg" xmlns:xlink="http://www.w3.org/1999/xlink">
    <!-- Generator: Sketch 57.1 (83088) - https://sketch.com -->
    <title>Achievements/FrameLvl6</title>
    <desc>Created with Sketch.</desc>
    <g id="Achievements/FrameLvl6" stroke="none" stroke-width="1" fill="none" fill-rule="evenodd">
        <g id="Group-13" transform="translate(10.500000, 2.000000)">
            <path d="M0.16796875,31.246632 L0.16796875,92.7401888 L53.4229582,123.486967 L106.676484,92.7401888 L106.676484,31.246632 L53.4229582,0.501317468 L0.16796875,31.246632 Z M6.02484651,89.3586873 L6.02484651,34.6266697 L53.4229582,7.26285667 L100.82107,34.6266697 L100.82107,89.3586873 L53.4229582,116.725428 L6.02484651,89.3586873 Z" id="Fill-1" fill="#F5C742"></path>
            <polygon id="Fill-2" fill="#FCDF04" points="53.4226654 0.531180079 53.4226654 7.29271928 53.4753642 7.26197836 100.87494 34.6272552 100.873476 89.3592729 53.4753642 116.726014 53.4226654 116.693809 53.4226654 123.455348 53.4753642 123.486089 106.730354 92.7407744 106.730354 31.2472176 53.476828 0.500439156"></polygon>
        </g>
        <g id="Group-6" transform="translate(9.082853, 0.724959)">
            <g id="Group" transform="translate(0.000000, -0.000145)">
                <polygon id="Fill-1" fill="#F7AA47" points="54.9497299 0 41.3135533 7.872716 46.3923037 16.6680499 54.9497299 11.7271119 63.5289159 16.6796552 68.604765 7.88432126"></polygon>
                <polygon id="Fill-3" fill="#F7AA47" points="-7.10542736e-15 79.4099843 -7.10542736e-15 95.1771762 13.6550351 103.061497 18.7323349 94.2676142 10.1545996 89.3136202 10.1545996 79.4099843"></polygon>
                <polygon id="Fill-4" fill="#F5C742" points="54.9497299 0 54.9497299 11.7271119 63.5289159 16.6796552 68.604765 7.88432126"></polygon>
                <polygon id="Fill-5" fill="#C1BDDF" points="99.74457 79.4099843 99.74457 89.3136202 91.1871439 94.2560089 96.2644437 103.049892 109.89917 95.1771762 109.89917 79.4099843"></polygon>
            </g>
            <polygon id="Fill-2" fill="#F5C742" points="99.74457 79.4098393 99.74457 89.3134752 91.1871439 94.2558639 96.2644437 103.049747 109.89917 95.1770311 109.89917 79.4098393"></polygon>
        </g>
        <g id="Group-2" transform="translate(64.082853, 75.724814) scale(1, -1) translate(-64.082853, -75.724814) translate(9.082853, 23.724814)">
            <polygon id="Fill-1" fill="#F5C742" points="54.9497299 0 41.3135533 7.872716 46.3923037 16.6680499 54.9497299 11.7271119 63.5289159 16.6796552 68.604765 7.88432126"></polygon>
            <polygon id="Fill-1" fill="#F7AA47" points="54.9497299 -3.55271368e-15 41.3135533 7.872716 46.3923037 16.6680499 54.9497299 11.7271119"></polygon>
            <polygon id="Fill-3" fill="#F7AA47" points="-3.55271368e-15 79.4099843 -3.55271368e-15 95.1771762 13.6550351 103.061497 18.7323349 94.2676142 10.1545996 89.3136202 10.1545996 79.4099843"></polygon>
            <polygon id="Fill-2" fill="#F5C742" points="99.74457 79.4099843 99.74457 89.3136202 91.1871439 94.2560089 96.2644437 103.049892 109.89917 95.1771762 109.89917 79.4099843"></polygon>
        </g>
    </g>
</svg>